<svg width="256" height="256" viewBox="0 0 256 256" fill="none" xmlns="http://www.w3.org/2000/svg">
<g clip-path="url(#clip0_1_7)">
<rect width="256" height="256" rx="128" fill="black"/>
<path d="M17.7121 166.667V73.5758H56.5303C63.5 73.5758 69.3333 74.5606 74.0303 76.5303C78.7576 78.5 82.303 81.2576 84.6667 84.803C87.0606 88.3485 88.2576 92.4545 88.2576 97.1212C88.2576 100.667 87.5152 103.833 86.0303 106.621C84.5455 109.379 82.5 111.667 79.8939 113.485C77.2879 115.303 74.2727 116.576 70.8485 117.303V118.212C74.6061 118.394 78.0758 119.409 81.2576 121.258C84.4697 123.106 87.0455 125.682 88.9848 128.985C90.9242 132.258 91.8939 136.136 91.8939 140.621C91.8939 145.621 90.6212 150.091 88.0758 154.03C85.5303 157.939 81.8485 161.03 77.0303 163.303C72.2121 165.545 66.3636 166.667 59.4848 166.667H17.7121ZM40.2121 148.53H54.1212C59 148.53 62.5909 147.606 64.8939 145.758C67.2273 143.909 68.3939 141.333 68.3939 138.03C68.3939 135.636 67.8333 133.576 66.7121 131.848C65.5909 130.091 64 128.742 61.9394 127.803C59.8788 126.833 57.4091 126.348 54.5303 126.348H40.2121V148.53ZM40.2121 111.848H52.6667C55.1212 111.848 57.303 111.439 59.2121 110.621C61.1212 109.803 62.6061 108.621 63.6667 107.076C64.7576 105.53 65.303 103.667 65.303 101.485C65.303 98.3636 64.197 95.9091 61.9848 94.1212C59.7727 92.3333 56.7879 91.4394 53.0303 91.4394H40.2121V111.848ZM82.2321 166.667V73.5758H104.732V110.939H141.414V73.5758H163.868V166.667H141.414V129.258H104.732V166.667H82.2321ZM236.729 73.5758V166.667H217.638L180.593 112.939H180.002V166.667H157.502V73.5758H176.866L213.502 127.212H214.275V73.5758H236.729Z" fill="url(#paint0_linear_1_7)"/>
</g>
<defs>
<linearGradient id="paint0_linear_1_7" x1="10.6667" y1="42.6667" x2="258.941" y2="70.5454" gradientUnits="userSpaceOnUse">
<stop offset="0.15935" stop-color="#8B5CF6"/>
<stop offset="0.588542" stop-color="#A855F7"/>
<stop offset="0.921659" stop-color="#D946EF"/>
</linearGradient>
<clipPath id="clip0_1_7">
<rect width="256" height="256" rx="128" fill="white"/>
</clipPath>
</defs>
</svg>
