<svg width="1163" height="581" viewBox="0 0 1163 581" fill="none" xmlns="http://www.w3.org/2000/svg">
<g clip-path="url(#clip0_10_2)">
<path d="M1038.13 6.67045L1131.22 6.67045V45.4886C1131.22 52.4583 1130.23 58.2917 1128.26 62.9886C1126.29 67.7159 1123.53 71.2614 1119.99 73.625C1116.44 76.0189 1112.34 77.2159 1107.67 77.2159C1104.13 77.2159 1100.96 76.4735 1098.17 74.9886C1095.41 73.5038 1093.13 71.4583 1091.31 68.8523C1089.49 66.2462 1088.22 63.2311 1087.49 59.8068H1086.58C1086.4 63.5644 1085.38 67.0341 1083.53 70.2159C1081.69 73.428 1079.11 76.0038 1075.81 77.9432C1072.53 79.8826 1068.66 80.8523 1064.17 80.8523C1059.17 80.8523 1054.7 79.5795 1050.76 77.0341C1046.85 74.4886 1043.76 70.8068 1041.49 65.9886C1039.25 61.1705 1038.13 55.322 1038.13 48.4432V6.67045ZM1056.26 29.1705V43.0795C1056.26 47.9583 1057.19 51.5492 1059.03 53.8523C1060.88 56.1856 1063.46 57.3523 1066.76 57.3523C1069.16 57.3523 1071.22 56.7917 1072.94 55.6705C1074.7 54.5492 1076.05 52.9583 1076.99 50.8977C1077.96 48.8371 1078.44 46.3674 1078.44 43.4886V29.1705L1056.26 29.1705ZM1092.94 29.1705V41.625C1092.94 44.0795 1093.35 46.2614 1094.17 48.1705C1094.99 50.0795 1096.17 51.5644 1097.72 52.625C1099.26 53.7159 1101.13 54.2614 1103.31 54.2614C1106.43 54.2614 1108.88 53.1553 1110.67 50.9432C1112.46 48.7311 1113.35 45.7462 1113.35 41.9886V29.1705H1092.94ZM1036.81 103.827C1036.81 96.5238 1038.25 90.2208 1041.13 84.9177C1044.03 79.645 1048.17 75.5844 1053.53 72.7359C1058.93 69.9177 1065.34 68.5086 1072.76 68.5086C1079.97 68.5086 1086.28 69.9329 1091.67 72.7814C1097.09 75.6298 1101.31 79.645 1104.31 84.8268C1107.34 90.0086 1108.85 96.1147 1108.85 103.145C1108.85 108.115 1108.08 112.66 1106.53 116.781C1104.99 120.903 1102.7 124.463 1099.67 127.463C1096.64 130.463 1092.9 132.797 1088.44 134.463C1084.02 136.13 1078.94 136.963 1073.22 136.963H1067.67V76.2814H1080.58V116.281C1082.94 116.251 1085.05 115.69 1086.9 114.6C1088.75 113.509 1090.19 112.009 1091.22 110.1C1092.28 108.221 1092.81 106.054 1092.81 103.6C1092.81 101.115 1092.25 98.8874 1091.13 96.9177C1090.03 94.948 1088.53 93.3874 1086.63 92.2359C1084.75 91.0844 1082.61 90.4783 1080.22 90.4177H1067.08C1064.23 90.4177 1061.73 90.9783 1059.58 92.0995C1057.46 93.2208 1055.81 94.8117 1054.63 96.8723C1053.44 98.9329 1052.85 101.387 1052.85 104.236C1052.85 106.206 1053.13 107.993 1053.67 109.6C1054.22 111.206 1055.02 112.584 1056.08 113.736C1057.14 114.887 1058.44 115.751 1059.99 116.327L1059.4 136.736C1054.82 135.887 1050.84 134.024 1047.44 131.145C1044.08 128.297 1041.46 124.554 1039.58 119.918C1037.73 115.281 1036.81 109.918 1036.81 103.827ZM1038.13 127.835H1131.22V150.335H1093.85V187.017H1131.22V209.472H1038.13V187.017H1075.53V150.335H1038.13V127.835ZM1036.81 235.742C1036.81 228.439 1038.25 222.136 1041.13 216.833C1044.03 211.56 1048.17 207.499 1053.53 204.651C1058.93 201.833 1065.34 200.424 1072.76 200.424C1079.97 200.424 1086.28 201.848 1091.67 204.696C1097.09 207.545 1101.31 211.56 1104.31 216.742C1107.34 221.924 1108.85 228.03 1108.85 235.06C1108.85 240.03 1108.08 244.575 1106.53 248.696C1104.99 252.818 1102.7 256.378 1099.67 259.378C1096.64 262.378 1092.9 264.711 1088.44 266.378C1084.02 268.045 1078.94 268.878 1073.22 268.878H1067.67V208.196H1080.58V248.196C1082.94 248.166 1085.05 247.605 1086.9 246.515C1088.75 245.424 1090.19 243.924 1091.22 242.015C1092.28 240.136 1092.81 237.969 1092.81 235.515C1092.81 233.03 1092.25 230.802 1091.13 228.833C1090.03 226.863 1088.53 225.302 1086.63 224.151C1084.75 222.999 1082.61 222.393 1080.22 222.333H1067.08C1064.23 222.333 1061.73 222.893 1059.58 224.015C1057.46 225.136 1055.81 226.727 1054.63 228.787C1053.44 230.848 1052.85 233.302 1052.85 236.151C1052.85 238.121 1053.13 239.908 1053.67 241.515C1054.22 243.121 1055.02 244.499 1056.08 245.651C1057.14 246.802 1058.44 247.666 1059.99 248.242L1059.4 268.651C1054.82 267.802 1050.84 265.939 1047.44 263.06C1044.08 260.211 1041.46 256.469 1039.58 251.833C1037.73 247.196 1036.81 241.833 1036.81 235.742ZM1038.13 259.75H1107.94V281.341H1095.22V282.069C1099.82 283.341 1103.25 285.417 1105.49 288.296C1107.76 291.175 1108.9 294.523 1108.9 298.341C1108.9 299.372 1108.82 300.432 1108.67 301.523C1108.55 302.614 1108.35 303.629 1108.08 304.569H1088.76C1089.13 303.508 1089.41 302.114 1089.63 300.387C1089.84 298.69 1089.94 297.175 1089.94 295.841C1089.94 293.205 1089.35 290.826 1088.17 288.705C1087.02 286.614 1085.4 284.963 1083.31 283.75C1081.25 282.569 1078.82 281.978 1076.03 281.978H1038.13V259.75ZM1036.81 322.157C1036.81 314.854 1038.25 308.551 1041.13 303.248C1044.03 297.975 1048.17 293.914 1053.53 291.066C1058.93 288.248 1065.34 286.839 1072.76 286.839C1079.97 286.839 1086.28 288.263 1091.67 291.111C1097.09 293.96 1101.31 297.975 1104.31 303.157C1107.34 308.339 1108.85 314.445 1108.85 321.475C1108.85 326.445 1108.08 330.99 1106.53 335.111C1104.99 339.233 1102.7 342.793 1099.67 345.793C1096.64 348.793 1092.9 351.127 1088.44 352.793C1084.02 354.46 1078.94 355.293 1073.22 355.293H1067.67V294.611H1080.58V334.611C1082.94 334.581 1085.05 334.02 1086.9 332.93C1088.75 331.839 1090.19 330.339 1091.22 328.43C1092.28 326.551 1092.81 324.384 1092.81 321.93C1092.81 319.445 1092.25 317.217 1091.13 315.248C1090.03 313.278 1088.53 311.717 1086.63 310.566C1084.75 309.414 1082.61 308.808 1080.22 308.748H1067.08C1064.23 308.748 1061.73 309.308 1059.58 310.43C1057.46 311.551 1055.81 313.142 1054.63 315.202C1053.44 317.263 1052.85 319.717 1052.85 322.566C1052.85 324.536 1053.13 326.323 1053.67 327.93C1054.22 329.536 1055.02 330.914 1056.08 332.066C1057.14 333.217 1058.44 334.081 1059.99 334.657L1059.4 355.066C1054.82 354.217 1050.84 352.354 1047.44 349.475C1044.08 346.627 1041.46 342.884 1039.58 338.248C1037.73 333.611 1036.81 328.248 1036.81 322.157ZM1131.22 425.393H1038.13V406.302L1091.85 369.256V368.665H1038.13V346.165H1131.22V365.529L1077.58 402.165V402.938H1131.22V425.393ZM1036.81 451.651C1036.81 444.318 1038.31 438.015 1041.31 432.742C1044.34 427.5 1048.55 423.454 1053.94 420.606C1059.37 417.788 1065.66 416.379 1072.81 416.379C1079.99 416.379 1086.28 417.788 1091.67 420.606C1097.09 423.454 1101.31 427.5 1104.31 432.742C1107.34 438.015 1108.85 444.318 1108.85 451.651C1108.85 458.985 1107.34 465.273 1104.31 470.515C1101.31 475.788 1097.09 479.833 1091.67 482.651C1086.28 485.5 1079.99 486.924 1072.81 486.924C1065.66 486.924 1059.37 485.5 1053.94 482.651C1048.55 479.833 1044.34 475.788 1041.31 470.515C1038.31 465.273 1036.81 458.985 1036.81 451.651ZM1053.58 451.788C1053.58 454.454 1054.4 456.712 1056.03 458.56C1057.67 460.409 1059.94 461.818 1062.85 462.788C1065.76 463.788 1069.13 464.288 1072.94 464.288C1076.82 464.288 1080.22 463.788 1083.13 462.788C1086.03 461.818 1088.31 460.409 1089.94 458.56C1091.58 456.712 1092.4 454.454 1092.4 451.788C1092.4 449.03 1091.58 446.697 1089.94 444.788C1088.31 442.909 1086.03 441.47 1083.13 440.47C1080.22 439.5 1076.82 439.015 1072.94 439.015C1069.13 439.015 1065.76 439.5 1062.85 440.47C1059.94 441.47 1057.67 442.909 1056.03 444.788C1054.4 446.697 1053.58 449.03 1053.58 451.788ZM1038.13 489.376L1107.94 471.194V493.512L1063.22 502.921V503.512L1107.94 513.603V535.376L1063.53 545.74V546.33L1107.94 555.467V577.785L1038.13 559.558V535.785L1078.81 524.876V524.103L1038.13 513.194V489.376Z" fill="white"/>
<path d="M896.375 6.92045L989.466 6.92045V45.7386C989.466 52.7083 988.481 58.5417 986.511 63.2386C984.542 67.9659 981.784 71.5114 978.239 73.875C974.693 76.2689 970.587 77.4659 965.92 77.4659C962.375 77.4659 959.208 76.7235 956.42 75.2386C953.663 73.7538 951.375 71.7083 949.557 69.1023C947.739 66.4962 946.466 63.4811 945.739 60.0568H944.83C944.648 63.8144 943.633 67.2841 941.784 70.4659C939.936 73.678 937.36 76.2538 934.057 78.1932C930.784 80.1326 926.905 81.1023 922.42 81.1023C917.42 81.1023 912.951 79.8295 909.011 77.2841C905.102 74.7386 902.011 71.0568 899.739 66.2386C897.496 61.4205 896.375 55.572 896.375 48.6932V6.92045ZM914.511 29.4205V43.3295C914.511 48.2083 915.436 51.7992 917.284 54.1023C919.133 56.4356 921.708 57.6023 925.011 57.6023C927.405 57.6023 929.466 57.0417 931.193 55.9205C932.951 54.7992 934.299 53.2083 935.239 51.1477C936.208 49.0871 936.693 46.6174 936.693 43.7386V29.4205L914.511 29.4205ZM951.193 29.4205V41.875C951.193 44.3295 951.602 46.5114 952.42 48.4205C953.239 50.3295 954.42 51.8144 955.966 52.875C957.511 53.9659 959.375 54.5114 961.557 54.5114C964.678 54.5114 967.133 53.4053 968.92 51.1932C970.708 48.9811 971.602 45.9962 971.602 42.2386V29.4205H951.193ZM895.057 104.077C895.057 96.7738 896.496 90.4708 899.375 85.1677C902.284 79.895 906.42 75.8344 911.784 72.9859C917.178 70.1677 923.587 68.7586 931.011 68.7586C938.223 68.7586 944.527 70.1829 949.92 73.0314C955.345 75.8798 959.557 79.895 962.557 85.0768C965.587 90.2586 967.102 96.3647 967.102 103.395C967.102 108.365 966.33 112.91 964.784 117.031C963.239 121.153 960.951 124.713 957.92 127.713C954.89 130.713 951.148 133.047 946.693 134.713C942.269 136.38 937.193 137.213 931.466 137.213H925.92V76.5314H938.83V116.531C941.193 116.501 943.299 115.94 945.148 114.85C946.996 113.759 948.436 112.259 949.466 110.35C950.527 108.471 951.057 106.304 951.057 103.85C951.057 101.365 950.496 99.1374 949.375 97.1677C948.284 95.198 946.784 93.6374 944.875 92.4859C942.996 91.3344 940.86 90.7283 938.466 90.6677H925.33C922.481 90.6677 919.981 91.2283 917.83 92.3495C915.708 93.4708 914.057 95.0617 912.875 97.1223C911.693 99.1829 911.102 101.637 911.102 104.486C911.102 106.456 911.375 108.243 911.92 109.85C912.466 111.456 913.269 112.834 914.33 113.986C915.39 115.137 916.693 116.001 918.239 116.577L917.648 136.986C913.072 136.137 909.087 134.274 905.693 131.395C902.33 128.547 899.708 124.804 897.83 120.168C895.981 115.531 895.057 110.168 895.057 104.077ZM896.375 128.085H989.466V150.585H952.102V187.267H989.466V209.722H896.375V187.267H933.784V150.585H896.375V128.085ZM895.057 235.992C895.057 228.689 896.496 222.386 899.375 217.083C902.284 211.81 906.42 207.749 911.784 204.901C917.178 202.083 923.587 200.674 931.011 200.674C938.223 200.674 944.527 202.098 949.92 204.946C955.345 207.795 959.557 211.81 962.557 216.992C965.587 222.174 967.102 228.28 967.102 235.31C967.102 240.28 966.33 244.825 964.784 248.946C963.239 253.068 960.951 256.628 957.92 259.628C954.89 262.628 951.148 264.961 946.693 266.628C942.269 268.295 937.193 269.128 931.466 269.128H925.92V208.446H938.83V248.446C941.193 248.416 943.299 247.855 945.148 246.765C946.996 245.674 948.436 244.174 949.466 242.265C950.527 240.386 951.057 238.219 951.057 235.765C951.057 233.28 950.496 231.052 949.375 229.083C948.284 227.113 946.784 225.552 944.875 224.401C942.996 223.249 940.86 222.643 938.466 222.583H925.33C922.481 222.583 919.981 223.143 917.83 224.265C915.708 225.386 914.057 226.977 912.875 229.037C911.693 231.098 911.102 233.552 911.102 236.401C911.102 238.371 911.375 240.158 911.92 241.765C912.466 243.371 913.269 244.749 914.33 245.901C915.39 247.052 916.693 247.916 918.239 248.492L917.648 268.901C913.072 268.052 909.087 266.189 905.693 263.31C902.33 260.461 899.708 256.719 897.83 252.083C895.981 247.446 895.057 242.083 895.057 235.992ZM896.375 260H966.193V281.591H953.466V282.319C958.072 283.591 961.496 285.667 963.739 288.546C966.011 291.425 967.148 294.773 967.148 298.591C967.148 299.622 967.072 300.682 966.92 301.773C966.799 302.864 966.602 303.879 966.33 304.819H947.011C947.375 303.758 947.663 302.364 947.875 300.637C948.087 298.94 948.193 297.425 948.193 296.091C948.193 293.455 947.602 291.076 946.42 288.955C945.269 286.864 943.648 285.213 941.557 284C939.496 282.819 937.072 282.228 934.284 282.228H896.375V260ZM895.057 322.407C895.057 315.104 896.496 308.801 899.375 303.498C902.284 298.225 906.42 294.164 911.784 291.316C917.178 288.498 923.587 287.089 931.011 287.089C938.223 287.089 944.527 288.513 949.92 291.361C955.345 294.21 959.557 298.225 962.557 303.407C965.587 308.589 967.102 314.695 967.102 321.725C967.102 326.695 966.33 331.24 964.784 335.361C963.239 339.483 960.951 343.043 957.92 346.043C954.89 349.043 951.148 351.377 946.693 353.043C942.269 354.71 937.193 355.543 931.466 355.543H925.92V294.861H938.83V334.861C941.193 334.831 943.299 334.27 945.148 333.18C946.996 332.089 948.436 330.589 949.466 328.68C950.527 326.801 951.057 324.634 951.057 322.18C951.057 319.695 950.496 317.467 949.375 315.498C948.284 313.528 946.784 311.967 944.875 310.816C942.996 309.664 940.86 309.058 938.466 308.998H925.33C922.481 308.998 919.981 309.558 917.83 310.68C915.708 311.801 914.057 313.392 912.875 315.452C911.693 317.513 911.102 319.967 911.102 322.816C911.102 324.786 911.375 326.573 911.92 328.18C912.466 329.786 913.269 331.164 914.33 332.316C915.39 333.467 916.693 334.331 918.239 334.907L917.648 355.316C913.072 354.467 909.087 352.604 905.693 349.725C902.33 346.877 899.708 343.134 897.83 338.498C895.981 333.861 895.057 328.498 895.057 322.407ZM989.466 425.643H896.375V406.552L950.102 369.506V368.915H896.375V346.415H989.466V365.779L935.83 402.415V403.188H989.466V425.643ZM895.057 451.901C895.057 444.568 896.557 438.265 899.557 432.992C902.587 427.75 906.799 423.704 912.193 420.856C917.617 418.038 923.905 416.629 931.057 416.629C938.239 416.629 944.527 418.038 949.92 420.856C955.345 423.704 959.557 427.75 962.557 432.992C965.587 438.265 967.102 444.568 967.102 451.901C967.102 459.235 965.587 465.523 962.557 470.765C959.557 476.038 955.345 480.083 949.92 482.901C944.527 485.75 938.239 487.174 931.057 487.174C923.905 487.174 917.617 485.75 912.193 482.901C906.799 480.083 902.587 476.038 899.557 470.765C896.557 465.523 895.057 459.235 895.057 451.901ZM911.83 452.038C911.83 454.704 912.648 456.962 914.284 458.81C915.92 460.659 918.193 462.068 921.102 463.038C924.011 464.038 927.375 464.538 931.193 464.538C935.072 464.538 938.466 464.038 941.375 463.038C944.284 462.068 946.557 460.659 948.193 458.81C949.83 456.962 950.648 454.704 950.648 452.038C950.648 449.28 949.83 446.947 948.193 445.038C946.557 443.159 944.284 441.72 941.375 440.72C938.466 439.75 935.072 439.265 931.193 439.265C927.375 439.265 924.011 439.75 921.102 440.72C918.193 441.72 915.92 443.159 914.284 445.038C912.648 446.947 911.83 449.28 911.83 452.038ZM896.375 489.626L966.193 471.444V493.762L921.466 503.171V503.762L966.193 513.853V535.626L921.784 545.99V546.58L966.193 555.717V578.035L896.375 559.808V536.035L937.057 525.126V524.353L896.375 513.444V489.626Z" fill="white"/>
<path d="M754.625 7.17045L847.716 7.17045V45.9886C847.716 52.9583 846.731 58.7917 844.761 63.4886C842.792 68.2159 840.034 71.7614 836.489 74.125C832.943 76.5189 828.837 77.7159 824.17 77.7159C820.625 77.7159 817.458 76.9735 814.67 75.4886C811.913 74.0038 809.625 71.9583 807.807 69.3523C805.989 66.7462 804.716 63.7311 803.989 60.3068H803.08C802.898 64.0644 801.883 67.5341 800.034 70.7159C798.186 73.928 795.61 76.5038 792.307 78.4432C789.034 80.3826 785.155 81.3523 780.67 81.3523C775.67 81.3523 771.201 80.0795 767.261 77.5341C763.352 74.9886 760.261 71.3068 757.989 66.4886C755.746 61.6705 754.625 55.822 754.625 48.9432V7.17045ZM772.761 29.6705V43.5795C772.761 48.4583 773.686 52.0492 775.534 54.3523C777.383 56.6856 779.958 57.8523 783.261 57.8523C785.655 57.8523 787.716 57.2917 789.443 56.1705C791.201 55.0492 792.549 53.4583 793.489 51.3977C794.458 49.3371 794.943 46.8674 794.943 43.9886V29.6705L772.761 29.6705ZM809.443 29.6705V42.125C809.443 44.5795 809.852 46.7614 810.67 48.6705C811.489 50.5795 812.67 52.0644 814.216 53.125C815.761 54.2159 817.625 54.7614 819.807 54.7614C822.928 54.7614 825.383 53.6553 827.17 51.4432C828.958 49.2311 829.852 46.2462 829.852 42.4886V29.6705H809.443ZM753.307 104.327C753.307 97.0238 754.746 90.7208 757.625 85.4177C760.534 80.145 764.67 76.0844 770.034 73.2359C775.428 70.4177 781.837 69.0086 789.261 69.0086C796.473 69.0086 802.777 70.4329 808.17 73.2814C813.595 76.1298 817.807 80.145 820.807 85.3268C823.837 90.5086 825.352 96.6147 825.352 103.645C825.352 108.615 824.58 113.16 823.034 117.281C821.489 121.403 819.201 124.963 816.17 127.963C813.14 130.963 809.398 133.297 804.943 134.963C800.519 136.63 795.443 137.463 789.716 137.463H784.17V76.7814H797.08V116.781C799.443 116.751 801.549 116.19 803.398 115.1C805.246 114.009 806.686 112.509 807.716 110.6C808.777 108.721 809.307 106.554 809.307 104.1C809.307 101.615 808.746 99.3874 807.625 97.4177C806.534 95.448 805.034 93.8874 803.125 92.7359C801.246 91.5844 799.11 90.9783 796.716 90.9177H783.58C780.731 90.9177 778.231 91.4783 776.08 92.5995C773.958 93.7208 772.307 95.3117 771.125 97.3723C769.943 99.4329 769.352 101.887 769.352 104.736C769.352 106.706 769.625 108.493 770.17 110.1C770.716 111.706 771.519 113.084 772.58 114.236C773.64 115.387 774.943 116.251 776.489 116.827L775.898 137.236C771.322 136.387 767.337 134.524 763.943 131.645C760.58 128.797 757.958 125.054 756.08 120.418C754.231 115.781 753.307 110.418 753.307 104.327ZM754.625 128.335H847.716V150.835H810.352V187.517H847.716V209.972H754.625V187.517H792.034V150.835H754.625V128.335ZM753.307 236.242C753.307 228.939 754.746 222.636 757.625 217.333C760.534 212.06 764.67 207.999 770.034 205.151C775.428 202.333 781.837 200.924 789.261 200.924C796.473 200.924 802.777 202.348 808.17 205.196C813.595 208.045 817.807 212.06 820.807 217.242C823.837 222.424 825.352 228.53 825.352 235.56C825.352 240.53 824.58 245.075 823.034 249.196C821.489 253.318 819.201 256.878 816.17 259.878C813.14 262.878 809.398 265.211 804.943 266.878C800.519 268.545 795.443 269.378 789.716 269.378H784.17V208.696H797.08V248.696C799.443 248.666 801.549 248.105 803.398 247.015C805.246 245.924 806.686 244.424 807.716 242.515C808.777 240.636 809.307 238.469 809.307 236.015C809.307 233.53 808.746 231.302 807.625 229.333C806.534 227.363 805.034 225.802 803.125 224.651C801.246 223.499 799.11 222.893 796.716 222.833H783.58C780.731 222.833 778.231 223.393 776.08 224.515C773.958 225.636 772.307 227.227 771.125 229.287C769.943 231.348 769.352 233.802 769.352 236.651C769.352 238.621 769.625 240.408 770.17 242.015C770.716 243.621 771.519 244.999 772.58 246.151C773.64 247.302 774.943 248.166 776.489 248.742L775.898 269.151C771.322 268.302 767.337 266.439 763.943 263.56C760.58 260.711 757.958 256.969 756.08 252.333C754.231 247.696 753.307 242.333 753.307 236.242ZM754.625 260.25H824.443V281.841H811.716V282.569C816.322 283.841 819.746 285.917 821.989 288.796C824.261 291.675 825.398 295.023 825.398 298.841C825.398 299.872 825.322 300.932 825.17 302.023C825.049 303.114 824.852 304.129 824.58 305.069H805.261C805.625 304.008 805.913 302.614 806.125 300.887C806.337 299.19 806.443 297.675 806.443 296.341C806.443 293.705 805.852 291.326 804.67 289.205C803.519 287.114 801.898 285.463 799.807 284.25C797.746 283.069 795.322 282.478 792.534 282.478H754.625V260.25ZM753.307 322.657C753.307 315.354 754.746 309.051 757.625 303.748C760.534 298.475 764.67 294.414 770.034 291.566C775.428 288.748 781.837 287.339 789.261 287.339C796.473 287.339 802.777 288.763 808.17 291.611C813.595 294.46 817.807 298.475 820.807 303.657C823.837 308.839 825.352 314.945 825.352 321.975C825.352 326.945 824.58 331.49 823.034 335.611C821.489 339.733 819.201 343.293 816.17 346.293C813.14 349.293 809.398 351.627 804.943 353.293C800.519 354.96 795.443 355.793 789.716 355.793H784.17V295.111H797.08V335.111C799.443 335.081 801.549 334.52 803.398 333.43C805.246 332.339 806.686 330.839 807.716 328.93C808.777 327.051 809.307 324.884 809.307 322.43C809.307 319.945 808.746 317.717 807.625 315.748C806.534 313.778 805.034 312.217 803.125 311.066C801.246 309.914 799.11 309.308 796.716 309.248H783.58C780.731 309.248 778.231 309.808 776.08 310.93C773.958 312.051 772.307 313.642 771.125 315.702C769.943 317.763 769.352 320.217 769.352 323.066C769.352 325.036 769.625 326.823 770.17 328.43C770.716 330.036 771.519 331.414 772.58 332.566C773.64 333.717 774.943 334.581 776.489 335.157L775.898 355.566C771.322 354.717 767.337 352.854 763.943 349.975C760.58 347.127 757.958 343.384 756.08 338.748C754.231 334.111 753.307 328.748 753.307 322.657ZM847.716 425.893H754.625V406.802L808.352 369.756V369.165H754.625V346.665H847.716V366.029L794.08 402.665V403.438H847.716V425.893ZM753.307 452.151C753.307 444.818 754.807 438.515 757.807 433.242C760.837 428 765.049 423.954 770.443 421.106C775.867 418.288 782.155 416.879 789.307 416.879C796.489 416.879 802.777 418.288 808.17 421.106C813.595 423.954 817.807 428 820.807 433.242C823.837 438.515 825.352 444.818 825.352 452.151C825.352 459.485 823.837 465.773 820.807 471.015C817.807 476.288 813.595 480.333 808.17 483.151C802.777 486 796.489 487.424 789.307 487.424C782.155 487.424 775.867 486 770.443 483.151C765.049 480.333 760.837 476.288 757.807 471.015C754.807 465.773 753.307 459.485 753.307 452.151ZM770.08 452.288C770.08 454.954 770.898 457.212 772.534 459.06C774.17 460.909 776.443 462.318 779.352 463.288C782.261 464.288 785.625 464.788 789.443 464.788C793.322 464.788 796.716 464.288 799.625 463.288C802.534 462.318 804.807 460.909 806.443 459.06C808.08 457.212 808.898 454.954 808.898 452.288C808.898 449.53 808.08 447.197 806.443 445.288C804.807 443.409 802.534 441.97 799.625 440.97C796.716 440 793.322 439.515 789.443 439.515C785.625 439.515 782.261 440 779.352 440.97C776.443 441.97 774.17 443.409 772.534 445.288C770.898 447.197 770.08 449.53 770.08 452.288ZM754.625 489.876L824.443 471.694V494.012L779.716 503.421V504.012L824.443 514.103V535.876L780.034 546.24V546.83L824.443 555.967V578.285L754.625 560.058V536.285L795.307 525.376V524.603L754.625 513.694V489.876Z" fill="white"/>
<path d="M612.875 7.42045L705.966 7.42045V46.2386C705.966 53.2083 704.981 59.0417 703.011 63.7386C701.042 68.4659 698.284 72.0114 694.739 74.375C691.193 76.7689 687.087 77.9659 682.42 77.9659C678.875 77.9659 675.708 77.2235 672.92 75.7386C670.163 74.2538 667.875 72.2083 666.057 69.6023C664.239 66.9962 662.966 63.9811 662.239 60.5568H661.33C661.148 64.3144 660.133 67.7841 658.284 70.9659C656.436 74.178 653.86 76.7538 650.557 78.6932C647.284 80.6326 643.405 81.6023 638.92 81.6023C633.92 81.6023 629.451 80.3295 625.511 77.7841C621.602 75.2386 618.511 71.5568 616.239 66.7386C613.996 61.9205 612.875 56.072 612.875 49.1932V7.42045ZM631.011 29.9205V43.8295C631.011 48.7083 631.936 52.2992 633.784 54.6023C635.633 56.9356 638.208 58.1023 641.511 58.1023C643.905 58.1023 645.966 57.5417 647.693 56.4205C649.451 55.2992 650.799 53.7083 651.739 51.6477C652.708 49.5871 653.193 47.1174 653.193 44.2386V29.9205L631.011 29.9205ZM667.693 29.9205V42.375C667.693 44.8295 668.102 47.0114 668.92 48.9205C669.739 50.8295 670.92 52.3144 672.466 53.375C674.011 54.4659 675.875 55.0114 678.057 55.0114C681.178 55.0114 683.633 53.9053 685.42 51.6932C687.208 49.4811 688.102 46.4962 688.102 42.7386V29.9205H667.693ZM611.557 104.577C611.557 97.2738 612.996 90.9708 615.875 85.6677C618.784 80.395 622.92 76.3344 628.284 73.4859C633.678 70.6677 640.087 69.2586 647.511 69.2586C654.723 69.2586 661.027 70.6829 666.42 73.5314C671.845 76.3798 676.057 80.395 679.057 85.5768C682.087 90.7586 683.602 96.8647 683.602 103.895C683.602 108.865 682.83 113.41 681.284 117.531C679.739 121.653 677.451 125.213 674.42 128.213C671.39 131.213 667.648 133.547 663.193 135.213C658.769 136.88 653.693 137.713 647.966 137.713H642.42V77.0314H655.33V117.031C657.693 117.001 659.799 116.44 661.648 115.35C663.496 114.259 664.936 112.759 665.966 110.85C667.027 108.971 667.557 106.804 667.557 104.35C667.557 101.865 666.996 99.6374 665.875 97.6677C664.784 95.698 663.284 94.1374 661.375 92.9859C659.496 91.8344 657.36 91.2283 654.966 91.1677H641.83C638.981 91.1677 636.481 91.7283 634.33 92.8495C632.208 93.9708 630.557 95.5617 629.375 97.6223C628.193 99.6829 627.602 102.137 627.602 104.986C627.602 106.956 627.875 108.743 628.42 110.35C628.966 111.956 629.769 113.334 630.83 114.486C631.89 115.637 633.193 116.501 634.739 117.077L634.148 137.486C629.572 136.637 625.587 134.774 622.193 131.895C618.83 129.047 616.208 125.304 614.33 120.668C612.481 116.031 611.557 110.668 611.557 104.577ZM612.875 128.585H705.966V151.085H668.602V187.767H705.966V210.222H612.875V187.767H650.284V151.085H612.875V128.585ZM611.557 236.492C611.557 229.189 612.996 222.886 615.875 217.583C618.784 212.31 622.92 208.249 628.284 205.401C633.678 202.583 640.087 201.174 647.511 201.174C654.723 201.174 661.027 202.598 666.42 205.446C671.845 208.295 676.057 212.31 679.057 217.492C682.087 222.674 683.602 228.78 683.602 235.81C683.602 240.78 682.83 245.325 681.284 249.446C679.739 253.568 677.451 257.128 674.42 260.128C671.39 263.128 667.648 265.461 663.193 267.128C658.769 268.795 653.693 269.628 647.966 269.628H642.42V208.946H655.33V248.946C657.693 248.916 659.799 248.355 661.648 247.265C663.496 246.174 664.936 244.674 665.966 242.765C667.027 240.886 667.557 238.719 667.557 236.265C667.557 233.78 666.996 231.552 665.875 229.583C664.784 227.613 663.284 226.052 661.375 224.901C659.496 223.749 657.36 223.143 654.966 223.083H641.83C638.981 223.083 636.481 223.643 634.33 224.765C632.208 225.886 630.557 227.477 629.375 229.537C628.193 231.598 627.602 234.052 627.602 236.901C627.602 238.871 627.875 240.658 628.42 242.265C628.966 243.871 629.769 245.249 630.83 246.401C631.89 247.552 633.193 248.416 634.739 248.992L634.148 269.401C629.572 268.552 625.587 266.689 622.193 263.81C618.83 260.961 616.208 257.219 614.33 252.583C612.481 247.946 611.557 242.583 611.557 236.492ZM612.875 260.5H682.693V282.091H669.966V282.819C674.572 284.091 677.996 286.167 680.239 289.046C682.511 291.925 683.648 295.273 683.648 299.091C683.648 300.122 683.572 301.182 683.42 302.273C683.299 303.364 683.102 304.379 682.83 305.319H663.511C663.875 304.258 664.163 302.864 664.375 301.137C664.587 299.44 664.693 297.925 664.693 296.591C664.693 293.955 664.102 291.576 662.92 289.455C661.769 287.364 660.148 285.713 658.057 284.5C655.996 283.319 653.572 282.728 650.784 282.728H612.875V260.5ZM611.557 322.907C611.557 315.604 612.996 309.301 615.875 303.998C618.784 298.725 622.92 294.664 628.284 291.816C633.678 288.998 640.087 287.589 647.511 287.589C654.723 287.589 661.027 289.013 666.42 291.861C671.845 294.71 676.057 298.725 679.057 303.907C682.087 309.089 683.602 315.195 683.602 322.225C683.602 327.195 682.83 331.74 681.284 335.861C679.739 339.983 677.451 343.543 674.42 346.543C671.39 349.543 667.648 351.877 663.193 353.543C658.769 355.21 653.693 356.043 647.966 356.043H642.42V295.361H655.33V335.361C657.693 335.331 659.799 334.77 661.648 333.68C663.496 332.589 664.936 331.089 665.966 329.18C667.027 327.301 667.557 325.134 667.557 322.68C667.557 320.195 666.996 317.967 665.875 315.998C664.784 314.028 663.284 312.467 661.375 311.316C659.496 310.164 657.36 309.558 654.966 309.498H641.83C638.981 309.498 636.481 310.058 634.33 311.18C632.208 312.301 630.557 313.892 629.375 315.952C628.193 318.013 627.602 320.467 627.602 323.316C627.602 325.286 627.875 327.073 628.42 328.68C628.966 330.286 629.769 331.664 630.83 332.816C631.89 333.967 633.193 334.831 634.739 335.407L634.148 355.816C629.572 354.967 625.587 353.104 622.193 350.225C618.83 347.377 616.208 343.634 614.33 338.998C612.481 334.361 611.557 328.998 611.557 322.907ZM705.966 426.143H612.875V407.052L666.602 370.006V369.415H612.875V346.915H705.966V366.279L652.33 402.915V403.688H705.966V426.143ZM611.557 452.401C611.557 445.068 613.057 438.765 616.057 433.492C619.087 428.25 623.299 424.204 628.693 421.356C634.117 418.538 640.405 417.129 647.557 417.129C654.739 417.129 661.027 418.538 666.42 421.356C671.845 424.204 676.057 428.25 679.057 433.492C682.087 438.765 683.602 445.068 683.602 452.401C683.602 459.735 682.087 466.023 679.057 471.265C676.057 476.538 671.845 480.583 666.42 483.401C661.027 486.25 654.739 487.674 647.557 487.674C640.405 487.674 634.117 486.25 628.693 483.401C623.299 480.583 619.087 476.538 616.057 471.265C613.057 466.023 611.557 459.735 611.557 452.401ZM628.33 452.538C628.33 455.204 629.148 457.462 630.784 459.31C632.42 461.159 634.693 462.568 637.602 463.538C640.511 464.538 643.875 465.038 647.693 465.038C651.572 465.038 654.966 464.538 657.875 463.538C660.784 462.568 663.057 461.159 664.693 459.31C666.33 457.462 667.148 455.204 667.148 452.538C667.148 449.78 666.33 447.447 664.693 445.538C663.057 443.659 660.784 442.22 657.875 441.22C654.966 440.25 651.572 439.765 647.693 439.765C643.875 439.765 640.511 440.25 637.602 441.22C634.693 442.22 632.42 443.659 630.784 445.538C629.148 447.447 628.33 449.78 628.33 452.538ZM612.875 490.126L682.693 471.944V494.262L637.966 503.671V504.262L682.693 514.353V536.126L638.284 546.49V547.08L682.693 556.217V578.535L612.875 560.308V536.535L653.557 525.626V524.853L612.875 513.944V490.126Z" fill="white"/>
<path d="M7.92045 124.375V31.2841H46.7386C53.7083 31.2841 59.5417 32.2689 64.2386 34.2386C68.9659 36.2083 72.5114 38.9659 74.875 42.5114C77.2689 46.0568 78.4659 50.1629 78.4659 54.8295C78.4659 58.375 77.7235 61.5417 76.2386 64.3295C74.7538 67.0871 72.7083 69.375 70.1023 71.1932C67.4962 73.0114 64.4811 74.2841 61.0568 75.0114V75.9204C64.8144 76.1023 68.2841 77.1174 71.4659 78.9659C74.678 80.8144 77.2538 83.3901 79.1932 86.6932C81.1326 89.9659 82.1023 93.8447 82.1023 98.3295C82.1023 103.33 80.8295 107.799 78.2841 111.739C75.7386 115.648 72.0568 118.739 67.2386 121.011C62.4205 123.254 56.572 124.375 49.6932 124.375H7.92045ZM30.4205 106.239H44.3295C49.2083 106.239 52.7992 105.314 55.1023 103.466C57.4356 101.617 58.6023 99.0417 58.6023 95.7386C58.6023 93.3447 58.0417 91.2841 56.9205 89.5568C55.7992 87.7992 54.2083 86.4508 52.1477 85.5114C50.0871 84.5417 47.6174 84.0568 44.7386 84.0568H30.4205V106.239ZM30.4205 69.5568H42.875C45.3295 69.5568 47.5114 69.1477 49.4205 68.3295C51.3295 67.5114 52.8144 66.3295 53.875 64.7841C54.9659 63.2386 55.5114 61.375 55.5114 59.1932C55.5114 56.072 54.4053 53.6174 52.1932 51.8295C49.9811 50.0417 46.9962 49.1477 43.2386 49.1477H30.4205V69.5568ZM105.077 125.693C97.7738 125.693 91.4708 124.254 86.1677 121.375C80.895 118.466 76.8344 114.33 73.9859 108.966C71.1677 103.572 69.7586 97.1629 69.7586 89.7386C69.7586 82.5265 71.1829 76.2235 74.0314 70.8295C76.8798 65.4053 80.895 61.1932 86.0768 58.1932C91.2586 55.1629 97.3647 53.6477 104.395 53.6477C109.365 53.6477 113.91 54.4205 118.031 55.9659C122.153 57.5114 125.713 59.7992 128.713 62.8295C131.713 65.8598 134.047 69.6023 135.713 74.0568C137.38 78.4811 138.213 83.5568 138.213 89.2841V94.8295H77.5314V81.9204H117.531C117.501 79.5568 116.94 77.4508 115.85 75.6023C114.759 73.7538 113.259 72.3144 111.35 71.2841C109.471 70.2235 107.304 69.6932 104.85 69.6932C102.365 69.6932 100.137 70.2538 98.1677 71.375C96.198 72.4659 94.6374 73.9659 93.4859 75.875C92.3344 77.7538 91.7283 79.8901 91.6677 82.2841V95.4204C91.6677 98.2689 92.2283 100.769 93.3495 102.92C94.4708 105.042 96.0617 106.693 98.1223 107.875C100.183 109.057 102.637 109.648 105.486 109.648C107.456 109.648 109.243 109.375 110.85 108.83C112.456 108.284 113.834 107.481 114.986 106.42C116.137 105.36 117.001 104.057 117.577 102.511L137.986 103.102C137.137 107.678 135.274 111.663 132.395 115.057C129.547 118.42 125.804 121.042 121.168 122.92C116.531 124.769 111.168 125.693 105.077 125.693ZM129.085 124.375V31.2841H151.585V68.6477H188.267V31.2841H210.722V124.375H188.267V86.9659H151.585V124.375H129.085ZM236.992 125.693C229.689 125.693 223.386 124.254 218.083 121.375C212.81 118.466 208.749 114.33 205.901 108.966C203.083 103.572 201.674 97.1629 201.674 89.7386C201.674 82.5265 203.098 76.2235 205.946 70.8295C208.795 65.4053 212.81 61.1932 217.992 58.1932C223.174 55.1629 229.28 53.6477 236.31 53.6477C241.28 53.6477 245.825 54.4205 249.946 55.9659C254.068 57.5114 257.628 59.7992 260.628 62.8295C263.628 65.8598 265.961 69.6023 267.628 74.0568C269.295 78.4811 270.128 83.5568 270.128 89.2841V94.8295H209.446V81.9204H249.446C249.416 79.5568 248.855 77.4508 247.765 75.6023C246.674 73.7538 245.174 72.3144 243.265 71.2841C241.386 70.2235 239.219 69.6932 236.765 69.6932C234.28 69.6932 232.052 70.2538 230.083 71.375C228.113 72.4659 226.552 73.9659 225.401 75.875C224.249 77.7538 223.643 79.8901 223.583 82.2841V95.4204C223.583 98.2689 224.143 100.769 225.265 102.92C226.386 105.042 227.977 106.693 230.037 107.875C232.098 109.057 234.552 109.648 237.401 109.648C239.371 109.648 241.158 109.375 242.765 108.83C244.371 108.284 245.749 107.481 246.901 106.42C248.052 105.36 248.916 104.057 249.492 102.511L269.901 103.102C269.052 107.678 267.189 111.663 264.31 115.057C261.461 118.42 257.719 121.042 253.083 122.92C248.446 124.769 243.083 125.693 236.992 125.693ZM261 124.375V54.5568H282.591V67.2841H283.319C284.591 62.678 286.667 59.2538 289.546 57.0114C292.425 54.7386 295.773 53.6023 299.591 53.6023C300.622 53.6023 301.682 53.678 302.773 53.8295C303.864 53.9508 304.879 54.1477 305.819 54.4205V73.7386C304.758 73.375 303.364 73.0871 301.637 72.875C299.94 72.6629 298.425 72.5568 297.091 72.5568C294.455 72.5568 292.076 73.1477 289.955 74.3295C287.864 75.4811 286.213 77.1023 285 79.1932C283.819 81.2538 283.228 83.678 283.228 86.4659V124.375H261ZM323.407 125.693C316.104 125.693 309.801 124.254 304.498 121.375C299.225 118.466 295.164 114.33 292.316 108.966C289.498 103.572 288.089 97.1629 288.089 89.7386C288.089 82.5265 289.513 76.2235 292.361 70.8295C295.21 65.4053 299.225 61.1932 304.407 58.1932C309.589 55.1629 315.695 53.6477 322.725 53.6477C327.695 53.6477 332.24 54.4205 336.361 55.9659C340.483 57.5114 344.043 59.7992 347.043 62.8295C350.043 65.8598 352.377 69.6023 354.043 74.0568C355.71 78.4811 356.543 83.5568 356.543 89.2841V94.8295H295.861V81.9204H335.861C335.831 79.5568 335.27 77.4508 334.18 75.6023C333.089 73.7538 331.589 72.3144 329.68 71.2841C327.801 70.2235 325.634 69.6932 323.18 69.6932C320.695 69.6932 318.467 70.2538 316.498 71.375C314.528 72.4659 312.967 73.9659 311.816 75.875C310.664 77.7538 310.058 79.8901 309.998 82.2841V95.4204C309.998 98.2689 310.558 100.769 311.68 102.92C312.801 105.042 314.392 106.693 316.452 107.875C318.513 109.057 320.967 109.648 323.816 109.648C325.786 109.648 327.573 109.375 329.18 108.83C330.786 108.284 332.164 107.481 333.316 106.42C334.467 105.36 335.331 104.057 335.907 102.511L356.316 103.102C355.467 107.678 353.604 111.663 350.725 115.057C347.877 118.42 344.134 121.042 339.498 122.92C334.861 124.769 329.498 125.693 323.407 125.693ZM426.643 31.2841V124.375H407.552L370.506 70.6477H369.915V124.375H347.415V31.2841H366.779L403.415 84.9204H404.188V31.2841H426.643ZM452.901 125.693C445.568 125.693 439.265 124.193 433.992 121.193C428.75 118.163 424.704 113.951 421.856 108.557C419.038 103.133 417.629 96.8447 417.629 89.6932C417.629 82.5114 419.038 76.2235 421.856 70.8295C424.704 65.4053 428.75 61.1932 433.992 58.1932C439.265 55.1629 445.568 53.6477 452.901 53.6477C460.235 53.6477 466.523 55.1629 471.765 58.1932C477.038 61.1932 481.083 65.4053 483.901 70.8295C486.75 76.2235 488.174 82.5114 488.174 89.6932C488.174 96.8447 486.75 103.133 483.901 108.557C481.083 113.951 477.038 118.163 471.765 121.193C466.523 124.193 460.235 125.693 452.901 125.693ZM453.038 108.92C455.704 108.92 457.962 108.102 459.81 106.466C461.659 104.83 463.068 102.557 464.038 99.6477C465.038 96.7386 465.538 93.375 465.538 89.5568C465.538 85.678 465.038 82.2841 464.038 79.375C463.068 76.4659 461.659 74.1932 459.81 72.5568C457.962 70.9204 455.704 70.1023 453.038 70.1023C450.28 70.1023 447.947 70.9204 446.038 72.5568C444.159 74.1932 442.72 76.4659 441.72 79.375C440.75 82.2841 440.265 85.678 440.265 89.5568C440.265 93.375 440.75 96.7386 441.72 99.6477C442.72 102.557 444.159 104.83 446.038 106.466C447.947 108.102 450.28 108.92 453.038 108.92ZM490.626 124.375L472.444 54.5568H494.762L504.171 99.2841H504.762L514.853 54.5568H536.626L546.99 98.9659H547.58L556.717 54.5568H579.035L560.808 124.375H537.035L526.126 83.6932H525.353L514.444 124.375H490.626Z" fill="white"/>
<path d="M8.17045 266.125V173.034H46.9886C53.9583 173.034 59.7917 174.019 64.4886 175.989C69.2159 177.958 72.7614 180.716 75.125 184.261C77.5189 187.807 78.7159 191.913 78.7159 196.58C78.7159 200.125 77.9735 203.292 76.4886 206.08C75.0038 208.837 72.9583 211.125 70.3523 212.943C67.7462 214.761 64.7311 216.034 61.3068 216.761V217.67C65.0644 217.852 68.5341 218.867 71.7159 220.716C74.928 222.564 77.5038 225.14 79.4432 228.443C81.3826 231.716 82.3523 235.595 82.3523 240.08C82.3523 245.08 81.0795 249.549 78.5341 253.489C75.9886 257.398 72.3068 260.489 67.4886 262.761C62.6705 265.004 56.822 266.125 49.9432 266.125H8.17045ZM30.6705 247.989H44.5795C49.4583 247.989 53.0492 247.064 55.3523 245.216C57.6856 243.367 58.8523 240.792 58.8523 237.489C58.8523 235.095 58.2917 233.034 57.1705 231.307C56.0492 229.549 54.4583 228.201 52.3977 227.261C50.3371 226.292 47.8674 225.807 44.9886 225.807H30.6705V247.989ZM30.6705 211.307H43.125C45.5795 211.307 47.7614 210.898 49.6705 210.08C51.5795 209.261 53.0644 208.08 54.125 206.534C55.2159 204.989 55.7614 203.125 55.7614 200.943C55.7614 197.822 54.6553 195.367 52.4432 193.58C50.2311 191.792 47.2462 190.898 43.4886 190.898H30.6705V211.307ZM105.327 267.443C98.0238 267.443 91.7208 266.004 86.4177 263.125C81.145 260.216 77.0844 256.08 74.2359 250.716C71.4177 245.322 70.0086 238.913 70.0086 231.489C70.0086 224.277 71.4329 217.973 74.2814 212.58C77.1298 207.155 81.145 202.943 86.3268 199.943C91.5086 196.913 97.6147 195.398 104.645 195.398C109.615 195.398 114.16 196.17 118.281 197.716C122.403 199.261 125.963 201.549 128.963 204.58C131.963 207.61 134.297 211.352 135.963 215.807C137.63 220.231 138.463 225.307 138.463 231.034V236.58H77.7814V223.67H117.781C117.751 221.307 117.19 219.201 116.1 217.352C115.009 215.504 113.509 214.064 111.6 213.034C109.721 211.973 107.554 211.443 105.1 211.443C102.615 211.443 100.387 212.004 98.4177 213.125C96.448 214.216 94.8874 215.716 93.7359 217.625C92.5844 219.504 91.9783 221.64 91.9177 224.034V237.17C91.9177 240.019 92.4783 242.519 93.5995 244.67C94.7208 246.792 96.3117 248.443 98.3723 249.625C100.433 250.807 102.887 251.398 105.736 251.398C107.706 251.398 109.493 251.125 111.1 250.58C112.706 250.034 114.084 249.231 115.236 248.17C116.387 247.11 117.251 245.807 117.827 244.261L138.236 244.852C137.387 249.428 135.524 253.413 132.645 256.807C129.797 260.17 126.054 262.792 121.418 264.67C116.781 266.519 111.418 267.443 105.327 267.443ZM129.335 266.125V173.034H151.835V210.398H188.517V173.034H210.972V266.125H188.517V228.716H151.835V266.125H129.335ZM237.242 267.443C229.939 267.443 223.636 266.004 218.333 263.125C213.06 260.216 208.999 256.08 206.151 250.716C203.333 245.322 201.924 238.913 201.924 231.489C201.924 224.277 203.348 217.973 206.196 212.58C209.045 207.155 213.06 202.943 218.242 199.943C223.424 196.913 229.53 195.398 236.56 195.398C241.53 195.398 246.075 196.17 250.196 197.716C254.318 199.261 257.878 201.549 260.878 204.58C263.878 207.61 266.211 211.352 267.878 215.807C269.545 220.231 270.378 225.307 270.378 231.034V236.58H209.696V223.67H249.696C249.666 221.307 249.105 219.201 248.015 217.352C246.924 215.504 245.424 214.064 243.515 213.034C241.636 211.973 239.469 211.443 237.015 211.443C234.53 211.443 232.302 212.004 230.333 213.125C228.363 214.216 226.802 215.716 225.651 217.625C224.499 219.504 223.893 221.64 223.833 224.034V237.17C223.833 240.019 224.393 242.519 225.515 244.67C226.636 246.792 228.227 248.443 230.287 249.625C232.348 250.807 234.802 251.398 237.651 251.398C239.621 251.398 241.408 251.125 243.015 250.58C244.621 250.034 245.999 249.231 247.151 248.17C248.302 247.11 249.166 245.807 249.742 244.261L270.151 244.852C269.302 249.428 267.439 253.413 264.56 256.807C261.711 260.17 257.969 262.792 253.333 264.67C248.696 266.519 243.333 267.443 237.242 267.443ZM261.25 266.125V196.307H282.841V209.034H283.569C284.841 204.428 286.917 201.004 289.796 198.761C292.675 196.489 296.023 195.352 299.841 195.352C300.872 195.352 301.932 195.428 303.023 195.58C304.114 195.701 305.129 195.898 306.069 196.17V215.489C305.008 215.125 303.614 214.837 301.887 214.625C300.19 214.413 298.675 214.307 297.341 214.307C294.705 214.307 292.326 214.898 290.205 216.08C288.114 217.231 286.463 218.852 285.25 220.943C284.069 223.004 283.478 225.428 283.478 228.216V266.125H261.25ZM323.657 267.443C316.354 267.443 310.051 266.004 304.748 263.125C299.475 260.216 295.414 256.08 292.566 250.716C289.748 245.322 288.339 238.913 288.339 231.489C288.339 224.277 289.763 217.973 292.611 212.58C295.46 207.155 299.475 202.943 304.657 199.943C309.839 196.913 315.945 195.398 322.975 195.398C327.945 195.398 332.49 196.17 336.611 197.716C340.733 199.261 344.293 201.549 347.293 204.58C350.293 207.61 352.627 211.352 354.293 215.807C355.96 220.231 356.793 225.307 356.793 231.034V236.58H296.111V223.67H336.111C336.081 221.307 335.52 219.201 334.43 217.352C333.339 215.504 331.839 214.064 329.93 213.034C328.051 211.973 325.884 211.443 323.43 211.443C320.945 211.443 318.717 212.004 316.748 213.125C314.778 214.216 313.217 215.716 312.066 217.625C310.914 219.504 310.308 221.64 310.248 224.034V237.17C310.248 240.019 310.808 242.519 311.93 244.67C313.051 246.792 314.642 248.443 316.702 249.625C318.763 250.807 321.217 251.398 324.066 251.398C326.036 251.398 327.823 251.125 329.43 250.58C331.036 250.034 332.414 249.231 333.566 248.17C334.717 247.11 335.581 245.807 336.157 244.261L356.566 244.852C355.717 249.428 353.854 253.413 350.975 256.807C348.127 260.17 344.384 262.792 339.748 264.67C335.111 266.519 329.748 267.443 323.657 267.443ZM426.893 173.034V266.125H407.802L370.756 212.398H370.165V266.125H347.665V173.034H367.029L403.665 226.67H404.438V173.034H426.893ZM453.151 267.443C445.818 267.443 439.515 265.943 434.242 262.943C429 259.913 424.954 255.701 422.106 250.307C419.288 244.883 417.879 238.595 417.879 231.443C417.879 224.261 419.288 217.973 422.106 212.58C424.954 207.155 429 202.943 434.242 199.943C439.515 196.913 445.818 195.398 453.151 195.398C460.485 195.398 466.773 196.913 472.015 199.943C477.288 202.943 481.333 207.155 484.151 212.58C487 217.973 488.424 224.261 488.424 231.443C488.424 238.595 487 244.883 484.151 250.307C481.333 255.701 477.288 259.913 472.015 262.943C466.773 265.943 460.485 267.443 453.151 267.443ZM453.288 250.67C455.954 250.67 458.212 249.852 460.06 248.216C461.909 246.58 463.318 244.307 464.288 241.398C465.288 238.489 465.788 235.125 465.788 231.307C465.788 227.428 465.288 224.034 464.288 221.125C463.318 218.216 461.909 215.943 460.06 214.307C458.212 212.67 455.954 211.852 453.288 211.852C450.53 211.852 448.197 212.67 446.288 214.307C444.409 215.943 442.97 218.216 441.97 221.125C441 224.034 440.515 227.428 440.515 231.307C440.515 235.125 441 238.489 441.97 241.398C442.97 244.307 444.409 246.58 446.288 248.216C448.197 249.852 450.53 250.67 453.288 250.67ZM490.876 266.125L472.694 196.307H495.012L504.421 241.034H505.012L515.103 196.307H536.876L547.24 240.716H547.83L556.967 196.307H579.285L561.058 266.125H537.285L526.376 225.443H525.603L514.694 266.125H490.876Z" fill="white"/>
<path d="M8.42045 407.875V314.784H47.2386C54.2083 314.784 60.0417 315.769 64.7386 317.739C69.4659 319.708 73.0114 322.466 75.375 326.011C77.7689 329.557 78.9659 333.663 78.9659 338.33C78.9659 341.875 78.2235 345.042 76.7386 347.83C75.2538 350.587 73.2083 352.875 70.6023 354.693C67.9962 356.511 64.9811 357.784 61.5568 358.511V359.42C65.3144 359.602 68.7841 360.617 71.9659 362.466C75.178 364.314 77.7538 366.89 79.6932 370.193C81.6326 373.466 82.6023 377.345 82.6023 381.83C82.6023 386.83 81.3295 391.299 78.7841 395.239C76.2386 399.148 72.5568 402.239 67.7386 404.511C62.9205 406.754 57.072 407.875 50.1932 407.875H8.42045ZM30.9205 389.739H44.8295C49.7083 389.739 53.2992 388.814 55.6023 386.966C57.9356 385.117 59.1023 382.542 59.1023 379.239C59.1023 376.845 58.5417 374.784 57.4205 373.057C56.2992 371.299 54.7083 369.951 52.6477 369.011C50.5871 368.042 48.1174 367.557 45.2386 367.557H30.9205V389.739ZM30.9205 353.057H43.375C45.8295 353.057 48.0114 352.648 49.9205 351.83C51.8295 351.011 53.3144 349.83 54.375 348.284C55.4659 346.739 56.0114 344.875 56.0114 342.693C56.0114 339.572 54.9053 337.117 52.6932 335.33C50.4811 333.542 47.4962 332.648 43.7386 332.648H30.9205V353.057ZM105.577 409.193C98.2738 409.193 91.9708 407.754 86.6677 404.875C81.395 401.966 77.3344 397.83 74.4859 392.466C71.6677 387.072 70.2586 380.663 70.2586 373.239C70.2586 366.027 71.6829 359.723 74.5314 354.33C77.3798 348.905 81.395 344.693 86.5768 341.693C91.7586 338.663 97.8647 337.148 104.895 337.148C109.865 337.148 114.41 337.92 118.531 339.466C122.653 341.011 126.213 343.299 129.213 346.33C132.213 349.36 134.547 353.102 136.213 357.557C137.88 361.981 138.713 367.057 138.713 372.784V378.33H78.0314V365.42H118.031C118.001 363.057 117.44 360.951 116.35 359.102C115.259 357.254 113.759 355.814 111.85 354.784C109.971 353.723 107.804 353.193 105.35 353.193C102.865 353.193 100.637 353.754 98.6677 354.875C96.698 355.966 95.1374 357.466 93.9859 359.375C92.8344 361.254 92.2283 363.39 92.1677 365.784V378.92C92.1677 381.769 92.7283 384.269 93.8495 386.42C94.9708 388.542 96.5617 390.193 98.6223 391.375C100.683 392.557 103.137 393.148 105.986 393.148C107.956 393.148 109.743 392.875 111.35 392.33C112.956 391.784 114.334 390.981 115.486 389.92C116.637 388.86 117.501 387.557 118.077 386.011L138.486 386.602C137.637 391.178 135.774 395.163 132.895 398.557C130.047 401.92 126.304 404.542 121.668 406.42C117.031 408.269 111.668 409.193 105.577 409.193ZM129.585 407.875V314.784H152.085V352.148H188.767V314.784H211.222V407.875H188.767V370.466H152.085V407.875H129.585ZM237.492 409.193C230.189 409.193 223.886 407.754 218.583 404.875C213.31 401.966 209.249 397.83 206.401 392.466C203.583 387.072 202.174 380.663 202.174 373.239C202.174 366.027 203.598 359.723 206.446 354.33C209.295 348.905 213.31 344.693 218.492 341.693C223.674 338.663 229.78 337.148 236.81 337.148C241.78 337.148 246.325 337.92 250.446 339.466C254.568 341.011 258.128 343.299 261.128 346.33C264.128 349.36 266.461 353.102 268.128 357.557C269.795 361.981 270.628 367.057 270.628 372.784V378.33H209.946V365.42H249.946C249.916 363.057 249.355 360.951 248.265 359.102C247.174 357.254 245.674 355.814 243.765 354.784C241.886 353.723 239.719 353.193 237.265 353.193C234.78 353.193 232.552 353.754 230.583 354.875C228.613 355.966 227.052 357.466 225.901 359.375C224.749 361.254 224.143 363.39 224.083 365.784V378.92C224.083 381.769 224.643 384.269 225.765 386.42C226.886 388.542 228.477 390.193 230.537 391.375C232.598 392.557 235.052 393.148 237.901 393.148C239.871 393.148 241.658 392.875 243.265 392.33C244.871 391.784 246.249 390.981 247.401 389.92C248.552 388.86 249.416 387.557 249.992 386.011L270.401 386.602C269.552 391.178 267.689 395.163 264.81 398.557C261.961 401.92 258.219 404.542 253.583 406.42C248.946 408.269 243.583 409.193 237.492 409.193ZM261.5 407.875V338.057H283.091V350.784H283.819C285.091 346.178 287.167 342.754 290.046 340.511C292.925 338.239 296.273 337.102 300.091 337.102C301.122 337.102 302.182 337.178 303.273 337.33C304.364 337.451 305.379 337.648 306.319 337.92V357.239C305.258 356.875 303.864 356.587 302.137 356.375C300.44 356.163 298.925 356.057 297.591 356.057C294.955 356.057 292.576 356.648 290.455 357.83C288.364 358.981 286.713 360.602 285.5 362.693C284.319 364.754 283.728 367.178 283.728 369.966V407.875H261.5ZM323.907 409.193C316.604 409.193 310.301 407.754 304.998 404.875C299.725 401.966 295.664 397.83 292.816 392.466C289.998 387.072 288.589 380.663 288.589 373.239C288.589 366.027 290.013 359.723 292.861 354.33C295.71 348.905 299.725 344.693 304.907 341.693C310.089 338.663 316.195 337.148 323.225 337.148C328.195 337.148 332.74 337.92 336.861 339.466C340.983 341.011 344.543 343.299 347.543 346.33C350.543 349.36 352.877 353.102 354.543 357.557C356.21 361.981 357.043 367.057 357.043 372.784V378.33H296.361V365.42H336.361C336.331 363.057 335.77 360.951 334.68 359.102C333.589 357.254 332.089 355.814 330.18 354.784C328.301 353.723 326.134 353.193 323.68 353.193C321.195 353.193 318.967 353.754 316.998 354.875C315.028 355.966 313.467 357.466 312.316 359.375C311.164 361.254 310.558 363.39 310.498 365.784V378.92C310.498 381.769 311.058 384.269 312.18 386.42C313.301 388.542 314.892 390.193 316.952 391.375C319.013 392.557 321.467 393.148 324.316 393.148C326.286 393.148 328.073 392.875 329.68 392.33C331.286 391.784 332.664 390.981 333.816 389.92C334.967 388.86 335.831 387.557 336.407 386.011L356.816 386.602C355.967 391.178 354.104 395.163 351.225 398.557C348.377 401.92 344.634 404.542 339.998 406.42C335.361 408.269 329.998 409.193 323.907 409.193ZM427.143 314.784V407.875H408.052L371.006 354.148H370.415V407.875H347.915V314.784H367.279L403.915 368.42H404.688V314.784H427.143ZM453.401 409.193C446.068 409.193 439.765 407.693 434.492 404.693C429.25 401.663 425.204 397.451 422.356 392.057C419.538 386.633 418.129 380.345 418.129 373.193C418.129 366.011 419.538 359.723 422.356 354.33C425.204 348.905 429.25 344.693 434.492 341.693C439.765 338.663 446.068 337.148 453.401 337.148C460.735 337.148 467.023 338.663 472.265 341.693C477.538 344.693 481.583 348.905 484.401 354.33C487.25 359.723 488.674 366.011 488.674 373.193C488.674 380.345 487.25 386.633 484.401 392.057C481.583 397.451 477.538 401.663 472.265 404.693C467.023 407.693 460.735 409.193 453.401 409.193ZM453.538 392.42C456.204 392.42 458.462 391.602 460.31 389.966C462.159 388.33 463.568 386.057 464.538 383.148C465.538 380.239 466.038 376.875 466.038 373.057C466.038 369.178 465.538 365.784 464.538 362.875C463.568 359.966 462.159 357.693 460.31 356.057C458.462 354.42 456.204 353.602 453.538 353.602C450.78 353.602 448.447 354.42 446.538 356.057C444.659 357.693 443.22 359.966 442.22 362.875C441.25 365.784 440.765 369.178 440.765 373.057C440.765 376.875 441.25 380.239 442.22 383.148C443.22 386.057 444.659 388.33 446.538 389.966C448.447 391.602 450.78 392.42 453.538 392.42ZM491.126 407.875L472.944 338.057H495.262L504.671 382.784H505.262L515.353 338.057H537.126L547.49 382.466H548.08L557.217 338.057H579.535L561.308 407.875H537.535L526.626 367.193H525.853L514.944 407.875H491.126Z" fill="white"/>
<path d="M8.67045 549.625V456.534H47.4886C54.4583 456.534 60.2917 457.519 64.9886 459.489C69.7159 461.458 73.2614 464.216 75.625 467.761C78.0189 471.307 79.2159 475.413 79.2159 480.08C79.2159 483.625 78.4735 486.792 76.9886 489.58C75.5038 492.337 73.4583 494.625 70.8523 496.443C68.2462 498.261 65.2311 499.534 61.8068 500.261V501.17C65.5644 501.352 69.0341 502.367 72.2159 504.216C75.428 506.064 78.0038 508.64 79.9432 511.943C81.8826 515.216 82.8523 519.095 82.8523 523.58C82.8523 528.58 81.5795 533.049 79.0341 536.989C76.4886 540.898 72.8068 543.989 67.9886 546.261C63.1705 548.504 57.322 549.625 50.4432 549.625H8.67045ZM31.1705 531.489H45.0795C49.9583 531.489 53.5492 530.564 55.8523 528.716C58.1856 526.867 59.3523 524.292 59.3523 520.989C59.3523 518.595 58.7917 516.534 57.6705 514.807C56.5492 513.049 54.9583 511.701 52.8977 510.761C50.8371 509.792 48.3674 509.307 45.4886 509.307H31.1705V531.489ZM31.1705 494.807H43.625C46.0795 494.807 48.2614 494.398 50.1705 493.58C52.0795 492.761 53.5644 491.58 54.625 490.034C55.7159 488.489 56.2614 486.625 56.2614 484.443C56.2614 481.322 55.1553 478.867 52.9432 477.08C50.7311 475.292 47.7462 474.398 43.9886 474.398H31.1705V494.807ZM105.827 550.943C98.5238 550.943 92.2208 549.504 86.9177 546.625C81.645 543.716 77.5844 539.58 74.7359 534.216C71.9177 528.822 70.5086 522.413 70.5086 514.989C70.5086 507.777 71.9329 501.473 74.7814 496.08C77.6298 490.655 81.645 486.443 86.8268 483.443C92.0086 480.413 98.1147 478.898 105.145 478.898C110.115 478.898 114.66 479.67 118.781 481.216C122.903 482.761 126.463 485.049 129.463 488.08C132.463 491.11 134.797 494.852 136.463 499.307C138.13 503.731 138.963 508.807 138.963 514.534V520.08H78.2814V507.17H118.281C118.251 504.807 117.69 502.701 116.6 500.852C115.509 499.004 114.009 497.564 112.1 496.534C110.221 495.473 108.054 494.943 105.6 494.943C103.115 494.943 100.887 495.504 98.9177 496.625C96.948 497.716 95.3874 499.216 94.2359 501.125C93.0844 503.004 92.4783 505.14 92.4177 507.534V520.67C92.4177 523.519 92.9783 526.019 94.0995 528.17C95.2208 530.292 96.8117 531.943 98.8723 533.125C100.933 534.307 103.387 534.898 106.236 534.898C108.206 534.898 109.993 534.625 111.6 534.08C113.206 533.534 114.584 532.731 115.736 531.67C116.887 530.61 117.751 529.307 118.327 527.761L138.736 528.352C137.887 532.928 136.024 536.913 133.145 540.307C130.297 543.67 126.554 546.292 121.918 548.17C117.281 550.019 111.918 550.943 105.827 550.943ZM129.835 549.625V456.534H152.335V493.898H189.017V456.534H211.472V549.625H189.017V512.216H152.335V549.625H129.835ZM237.742 550.943C230.439 550.943 224.136 549.504 218.833 546.625C213.56 543.716 209.499 539.58 206.651 534.216C203.833 528.822 202.424 522.413 202.424 514.989C202.424 507.777 203.848 501.473 206.696 496.08C209.545 490.655 213.56 486.443 218.742 483.443C223.924 480.413 230.03 478.898 237.06 478.898C242.03 478.898 246.575 479.67 250.696 481.216C254.818 482.761 258.378 485.049 261.378 488.08C264.378 491.11 266.711 494.852 268.378 499.307C270.045 503.731 270.878 508.807 270.878 514.534V520.08H210.196V507.17H250.196C250.166 504.807 249.605 502.701 248.515 500.852C247.424 499.004 245.924 497.564 244.015 496.534C242.136 495.473 239.969 494.943 237.515 494.943C235.03 494.943 232.802 495.504 230.833 496.625C228.863 497.716 227.302 499.216 226.151 501.125C224.999 503.004 224.393 505.14 224.333 507.534V520.67C224.333 523.519 224.893 526.019 226.015 528.17C227.136 530.292 228.727 531.943 230.787 533.125C232.848 534.307 235.302 534.898 238.151 534.898C240.121 534.898 241.908 534.625 243.515 534.08C245.121 533.534 246.499 532.731 247.651 531.67C248.802 530.61 249.666 529.307 250.242 527.761L270.651 528.352C269.802 532.928 267.939 536.913 265.06 540.307C262.211 543.67 258.469 546.292 253.833 548.17C249.196 550.019 243.833 550.943 237.742 550.943ZM261.75 549.625V479.807H283.341V492.534H284.069C285.341 487.928 287.417 484.504 290.296 482.261C293.175 479.989 296.523 478.852 300.341 478.852C301.372 478.852 302.432 478.928 303.523 479.08C304.614 479.201 305.629 479.398 306.569 479.67V498.989C305.508 498.625 304.114 498.337 302.387 498.125C300.69 497.913 299.175 497.807 297.841 497.807C295.205 497.807 292.826 498.398 290.705 499.58C288.614 500.731 286.963 502.352 285.75 504.443C284.569 506.504 283.978 508.928 283.978 511.716V549.625H261.75ZM324.157 550.943C316.854 550.943 310.551 549.504 305.248 546.625C299.975 543.716 295.914 539.58 293.066 534.216C290.248 528.822 288.839 522.413 288.839 514.989C288.839 507.777 290.263 501.473 293.111 496.08C295.96 490.655 299.975 486.443 305.157 483.443C310.339 480.413 316.445 478.898 323.475 478.898C328.445 478.898 332.99 479.67 337.111 481.216C341.233 482.761 344.793 485.049 347.793 488.08C350.793 491.11 353.127 494.852 354.793 499.307C356.46 503.731 357.293 508.807 357.293 514.534V520.08H296.611V507.17H336.611C336.581 504.807 336.02 502.701 334.93 500.852C333.839 499.004 332.339 497.564 330.43 496.534C328.551 495.473 326.384 494.943 323.93 494.943C321.445 494.943 319.217 495.504 317.248 496.625C315.278 497.716 313.717 499.216 312.566 501.125C311.414 503.004 310.808 505.14 310.748 507.534V520.67C310.748 523.519 311.308 526.019 312.43 528.17C313.551 530.292 315.142 531.943 317.202 533.125C319.263 534.307 321.717 534.898 324.566 534.898C326.536 534.898 328.323 534.625 329.93 534.08C331.536 533.534 332.914 532.731 334.066 531.67C335.217 530.61 336.081 529.307 336.657 527.761L357.066 528.352C356.217 532.928 354.354 536.913 351.475 540.307C348.627 543.67 344.884 546.292 340.248 548.17C335.611 550.019 330.248 550.943 324.157 550.943ZM427.393 456.534V549.625H408.302L371.256 495.898H370.665V549.625H348.165V456.534H367.529L404.165 510.17H404.938V456.534H427.393ZM453.651 550.943C446.318 550.943 440.015 549.443 434.742 546.443C429.5 543.413 425.454 539.201 422.606 533.807C419.788 528.383 418.379 522.095 418.379 514.943C418.379 507.761 419.788 501.473 422.606 496.08C425.454 490.655 429.5 486.443 434.742 483.443C440.015 480.413 446.318 478.898 453.651 478.898C460.985 478.898 467.273 480.413 472.515 483.443C477.788 486.443 481.833 490.655 484.651 496.08C487.5 501.473 488.924 507.761 488.924 514.943C488.924 522.095 487.5 528.383 484.651 533.807C481.833 539.201 477.788 543.413 472.515 546.443C467.273 549.443 460.985 550.943 453.651 550.943ZM453.788 534.17C456.454 534.17 458.712 533.352 460.56 531.716C462.409 530.08 463.818 527.807 464.788 524.898C465.788 521.989 466.288 518.625 466.288 514.807C466.288 510.928 465.788 507.534 464.788 504.625C463.818 501.716 462.409 499.443 460.56 497.807C458.712 496.17 456.454 495.352 453.788 495.352C451.03 495.352 448.697 496.17 446.788 497.807C444.909 499.443 443.47 501.716 442.47 504.625C441.5 507.534 441.015 510.928 441.015 514.807C441.015 518.625 441.5 521.989 442.47 524.898C443.47 527.807 444.909 530.08 446.788 531.716C448.697 533.352 451.03 534.17 453.788 534.17ZM491.376 549.625L473.194 479.807H495.512L504.921 524.534H505.512L515.603 479.807H537.376L547.74 524.216H548.33L557.467 479.807H579.785L561.558 549.625H537.785L526.876 508.943H526.103L515.194 549.625H491.376Z" fill="white"/>
</g>
<defs>
<clipPath id="clip0_10_2">
<rect width="1161.25" height="580.25" fill="white" transform="translate(0.875 0.375)"/>
</clipPath>
</defs>
</svg>
