<svg width="768" height="256" viewBox="0 0 768 256" fill="none" xmlns="http://www.w3.org/2000/svg">
<g clip-path="url(#clip0_1_2)">
<rect width="768" height="256" rx="128" fill="black"/>
<rect width="768" height="256" fill="black"/>
<path d="M92.3788 166.667V73.5758H131.197C138.167 73.5758 144 74.5606 148.697 76.5303C153.424 78.5 156.97 81.2576 159.333 84.803C161.727 88.3485 162.924 92.4545 162.924 97.1212C162.924 100.667 162.182 103.833 160.697 106.621C159.212 109.379 157.167 111.667 154.561 113.485C151.955 115.303 148.939 116.576 145.515 117.303V118.212C149.273 118.394 152.742 119.409 155.924 121.258C159.136 123.106 161.712 125.682 163.652 128.985C165.591 132.258 166.561 136.136 166.561 140.621C166.561 145.621 165.288 150.091 162.742 154.03C160.197 157.939 156.515 161.03 151.697 163.303C146.879 165.545 141.03 166.667 134.152 166.667H92.3788ZM114.879 148.53H128.788C133.667 148.53 137.258 147.606 139.561 145.758C141.894 143.909 143.061 141.333 143.061 138.03C143.061 135.636 142.5 133.576 141.379 131.848C140.258 130.091 138.667 128.742 136.606 127.803C134.545 126.833 132.076 126.348 129.197 126.348H114.879V148.53ZM114.879 111.848H127.333C129.788 111.848 131.97 111.439 133.879 110.621C135.788 109.803 137.273 108.621 138.333 107.076C139.424 105.53 139.97 103.667 139.97 101.485C139.97 98.3636 138.864 95.9091 136.652 94.1212C134.439 92.3333 131.455 91.4394 127.697 91.4394H114.879V111.848ZM189.535 167.985C182.232 167.985 175.929 166.545 170.626 163.667C165.353 160.758 161.293 156.621 158.444 151.258C155.626 145.864 154.217 139.455 154.217 132.03C154.217 124.818 155.641 118.515 158.49 113.121C161.338 107.697 165.353 103.485 170.535 100.485C175.717 97.4545 181.823 95.9394 188.853 95.9394C193.823 95.9394 198.368 96.7121 202.49 98.2576C206.611 99.803 210.172 102.091 213.172 105.121C216.172 108.152 218.505 111.894 220.172 116.348C221.838 120.773 222.672 125.848 222.672 131.576V137.121H161.99V124.212H201.99C201.959 121.848 201.399 119.742 200.308 117.894C199.217 116.045 197.717 114.606 195.808 113.576C193.929 112.515 191.762 111.985 189.308 111.985C186.823 111.985 184.596 112.545 182.626 113.667C180.656 114.758 179.096 116.258 177.944 118.167C176.793 120.045 176.187 122.182 176.126 124.576V137.712C176.126 140.561 176.687 143.061 177.808 145.212C178.929 147.333 180.52 148.985 182.581 150.167C184.641 151.348 187.096 151.939 189.944 151.939C191.914 151.939 193.702 151.667 195.308 151.121C196.914 150.576 198.293 149.773 199.444 148.712C200.596 147.652 201.459 146.348 202.035 144.803L222.444 145.394C221.596 149.97 219.732 153.955 216.853 157.348C214.005 160.712 210.262 163.333 205.626 165.212C200.99 167.061 195.626 167.985 189.535 167.985ZM213.544 166.667V73.5758H236.044V110.939H272.726V73.5758H295.18V166.667H272.726V129.258H236.044V166.667H213.544ZM321.45 167.985C314.147 167.985 307.844 166.545 302.541 163.667C297.268 160.758 293.208 156.621 290.359 151.258C287.541 145.864 286.132 139.455 286.132 132.03C286.132 124.818 287.556 118.515 290.405 113.121C293.253 107.697 297.268 103.485 302.45 100.485C307.632 97.4545 313.738 95.9394 320.768 95.9394C325.738 95.9394 330.283 96.7121 334.405 98.2576C338.526 99.803 342.087 102.091 345.087 105.121C348.087 108.152 350.42 111.894 352.087 116.348C353.753 120.773 354.587 125.848 354.587 131.576V137.121H293.905V124.212H333.905C333.874 121.848 333.314 119.742 332.223 117.894C331.132 116.045 329.632 114.606 327.723 113.576C325.844 112.515 323.677 111.985 321.223 111.985C318.738 111.985 316.511 112.545 314.541 113.667C312.571 114.758 311.011 116.258 309.859 118.167C308.708 120.045 308.102 122.182 308.041 124.576V137.712C308.041 140.561 308.602 143.061 309.723 145.212C310.844 147.333 312.435 148.985 314.496 150.167C316.556 151.348 319.011 151.939 321.859 151.939C323.829 151.939 325.617 151.667 327.223 151.121C328.829 150.576 330.208 149.773 331.359 148.712C332.511 147.652 333.374 146.348 333.95 144.803L354.359 145.394C353.511 149.97 351.647 153.955 348.768 157.348C345.92 160.712 342.177 163.333 337.541 165.212C332.905 167.061 327.541 167.985 321.45 167.985ZM345.459 166.667V96.8485H367.05V109.576H367.777C369.05 104.97 371.125 101.545 374.004 99.303C376.883 97.0303 380.232 95.8939 384.05 95.8939C385.08 95.8939 386.141 95.9697 387.232 96.1212C388.322 96.2424 389.338 96.4394 390.277 96.7121V116.03C389.216 115.667 387.822 115.379 386.095 115.167C384.398 114.955 382.883 114.848 381.55 114.848C378.913 114.848 376.535 115.439 374.413 116.621C372.322 117.773 370.671 119.394 369.459 121.485C368.277 123.545 367.686 125.97 367.686 128.758V166.667H345.459ZM407.865 167.985C400.562 167.985 394.259 166.545 388.956 163.667C383.683 160.758 379.623 156.621 376.774 151.258C373.956 145.864 372.547 139.455 372.547 132.03C372.547 124.818 373.971 118.515 376.82 113.121C379.668 107.697 383.683 103.485 388.865 100.485C394.047 97.4545 400.153 95.9394 407.183 95.9394C412.153 95.9394 416.698 96.7121 420.82 98.2576C424.941 99.803 428.502 102.091 431.502 105.121C434.502 108.152 436.835 111.894 438.502 116.348C440.168 120.773 441.002 125.848 441.002 131.576V137.121H380.32V124.212H420.32C420.289 121.848 419.729 119.742 418.638 117.894C417.547 116.045 416.047 114.606 414.138 113.576C412.259 112.515 410.092 111.985 407.638 111.985C405.153 111.985 402.926 112.545 400.956 113.667C398.986 114.758 397.426 116.258 396.274 118.167C395.123 120.045 394.517 122.182 394.456 124.576V137.712C394.456 140.561 395.017 143.061 396.138 145.212C397.259 147.333 398.85 148.985 400.911 150.167C402.971 151.348 405.426 151.939 408.274 151.939C410.244 151.939 412.032 151.667 413.638 151.121C415.244 150.576 416.623 149.773 417.774 148.712C418.926 147.652 419.789 146.348 420.365 144.803L440.774 145.394C439.926 149.97 438.062 153.955 435.183 157.348C432.335 160.712 428.592 163.333 423.956 165.212C419.32 167.061 413.956 167.985 407.865 167.985ZM511.101 73.5758V166.667H492.01L454.965 112.939H454.374V166.667H431.874V73.5758H451.237L487.874 127.212H488.647V73.5758H511.101ZM537.36 167.985C530.026 167.985 523.723 166.485 518.451 163.485C513.208 160.455 509.163 156.242 506.314 150.848C503.496 145.424 502.087 139.136 502.087 131.985C502.087 124.803 503.496 118.515 506.314 113.121C509.163 107.697 513.208 103.485 518.451 100.485C523.723 97.4545 530.026 95.9394 537.36 95.9394C544.693 95.9394 550.981 97.4545 556.223 100.485C561.496 103.485 565.542 107.697 568.36 113.121C571.208 118.515 572.632 124.803 572.632 131.985C572.632 139.136 571.208 145.424 568.36 150.848C565.542 156.242 561.496 160.455 556.223 163.485C550.981 166.485 544.693 167.985 537.36 167.985ZM537.496 151.212C540.163 151.212 542.42 150.394 544.269 148.758C546.117 147.121 547.526 144.848 548.496 141.939C549.496 139.03 549.996 135.667 549.996 131.848C549.996 127.97 549.496 124.576 548.496 121.667C547.526 118.758 546.117 116.485 544.269 114.848C542.42 113.212 540.163 112.394 537.496 112.394C534.739 112.394 532.405 113.212 530.496 114.848C528.617 116.485 527.178 118.758 526.178 121.667C525.208 124.576 524.723 127.97 524.723 131.848C524.723 135.667 525.208 139.03 526.178 141.939C527.178 144.848 528.617 147.121 530.496 148.758C532.405 150.394 534.739 151.212 537.496 151.212ZM575.084 166.667L556.902 96.8485H579.221L588.63 141.576H589.221L599.312 96.8485H621.084L631.448 141.258H632.039L641.175 96.8485H663.493L645.266 166.667H621.493L610.584 125.985H609.812L598.902 166.667H575.084Z" fill="url(#paint0_linear_1_2)"/>
</g>
<defs>
<linearGradient id="paint0_linear_1_2" x1="85.3333" y1="42.6667" x2="664.526" y2="204.149" gradientUnits="userSpaceOnUse">
<stop offset="0.15935" stop-color="#8B5CF6"/>
<stop offset="0.588542" stop-color="#A855F7"/>
<stop offset="0.921659" stop-color="#D946EF"/>
</linearGradient>
<clipPath id="clip0_1_2">
<rect width="768" height="256" rx="128" fill="white"/>
</clipPath>
</defs>
</svg>
