<svg width="256" height="256" viewBox="0 0 256 256" fill="none" xmlns="http://www.w3.org/2000/svg">
<g clip-path="url(#clip0_14_2)">
<rect width="256" height="256" fill="black"/>
<path d="M57.0909 221V34.8182H134.727C148.667 34.8182 160.333 36.7879 169.727 40.7273C179.182 44.6667 186.273 50.1818 191 57.2727C195.788 64.3636 198.182 72.5758 198.182 81.9091C198.182 89 196.697 95.3333 193.727 100.909C190.758 106.424 186.667 111 181.455 114.636C176.242 118.273 170.212 120.818 163.364 122.273V124.091C170.879 124.455 177.818 126.485 184.182 130.182C190.606 133.879 195.758 139.03 199.636 145.636C203.515 152.182 205.455 159.939 205.455 168.909C205.455 178.909 202.909 187.848 197.818 195.727C192.727 203.545 185.364 209.727 175.727 214.273C166.091 218.758 154.394 221 140.636 221H57.0909ZM102.091 184.727H129.909C139.667 184.727 146.848 182.879 151.455 179.182C156.121 175.485 158.455 170.333 158.455 163.727C158.455 158.939 157.333 154.818 155.091 151.364C152.848 147.848 149.667 145.152 145.545 143.273C141.424 141.333 136.485 140.364 130.727 140.364H102.091V184.727ZM102.091 111.364H127C131.909 111.364 136.273 110.545 140.091 108.909C143.909 107.273 146.879 104.909 149 101.818C151.182 98.7273 152.273 95 152.273 90.6364C152.273 84.3939 150.061 79.4848 145.636 75.9091C141.212 72.3333 135.242 70.5455 127.727 70.5455H102.091V111.364Z" fill="url(#paint0_linear_14_2)"/>
</g>
<defs>
<linearGradient id="paint0_linear_14_2" x1="43" y1="-27" x2="225.341" y2="-19.5625" gradientUnits="userSpaceOnUse">
<stop offset="0.15935" stop-color="#8B5CF6"/>
<stop offset="0.588542" stop-color="#A855F7"/>
<stop offset="0.921659" stop-color="#D946EF"/>
</linearGradient>
<clipPath id="clip0_14_2">
<rect width="256" height="256" fill="white"/>
</clipPath>
</defs>
</svg>
